# Blender 5.0.1
# www.blender.org
mtllib LowPolyUVSphere.mtl
o Sphere
v 0.000000 1.000000 0.000000
v 0.000000 0.866025 -0.500000
v 0.000000 0.500000 -0.866025
v 0.000000 0.000000 -1.000000
v 0.000000 -0.500000 -0.866025
v 0.000000 -0.866025 -0.500000
v 0.000000 -1.000000 0.000000
v 0.250000 0.866025 -0.433013
v 0.433013 0.500000 -0.750000
v 0.500000 0.000000 -0.866025
v 0.433013 -0.500000 -0.750000
v 0.250000 -0.866025 -0.433013
v 0.433013 0.866025 -0.250000
v 0.750000 0.500000 -0.433013
v 0.866025 0.000000 -0.500000
v 0.750000 -0.500000 -0.433013
v 0.433013 -0.866025 -0.250000
v 0.500000 0.866025 0.000000
v 0.866025 0.500000 0.000000
v 1.000000 0.000000 0.000000
v 0.866025 -0.500000 0.000000
v 0.500000 -0.866025 0.000000
v 0.433013 0.866025 0.250000
v 0.750000 0.500000 0.433013
v 0.866025 0.000000 0.500000
v 0.750000 -0.500000 0.433013
v 0.433013 -0.866025 0.250000
v 0.250000 0.866025 0.433013
v 0.433013 0.500000 0.750000
v 0.500000 0.000000 0.866025
v 0.433013 -0.500000 0.750000
v 0.250000 -0.866025 0.433013
v 0.000000 0.866025 0.500000
v -0.000000 0.500000 0.866025
v 0.000000 0.000000 1.000000
v -0.000000 -0.500000 0.866025
v 0.000000 -0.866025 0.500000
v -0.250000 0.866025 0.433013
v -0.433013 0.500000 0.750000
v -0.500000 0.000000 0.866025
v -0.433013 -0.500000 0.750000
v -0.250000 -0.866025 0.433013
v -0.433013 0.866025 0.250000
v -0.750000 0.500000 0.433013
v -0.866025 0.000000 0.500000
v -0.750000 -0.500000 0.433013
v -0.433013 -0.866025 0.250000
v -0.500000 0.866025 0.000000
v -0.866025 0.500000 -0.000000
v -1.000000 0.000000 0.000000
v -0.866025 -0.500000 -0.000000
v -0.500000 -0.866025 0.000000
v -0.433013 0.866025 -0.250000
v -0.750000 0.500000 -0.433013
v -0.866025 0.000000 -0.500000
v -0.750000 -0.500000 -0.433013
v -0.433013 -0.866025 -0.250000
v -0.250000 0.866025 -0.433013
v -0.433013 0.500000 -0.750000
v -0.500000 0.000000 -0.866025
v -0.433013 -0.500000 -0.750000
v -0.250000 -0.866025 -0.433013
vn 0.0692 -0.9636 -0.2582
vn 0.2506 -0.2506 -0.9351
vn 0.1862 0.6947 -0.6947
vn 0.1862 -0.6947 -0.6947
vn 0.2506 0.2506 -0.9351
vn 0.0692 0.9636 -0.2582
vn 0.6846 -0.2506 -0.6846
vn 0.5086 0.6947 -0.5086
vn 0.5086 -0.6947 -0.5086
vn 0.6846 0.2506 -0.6846
vn 0.1890 0.9636 -0.1890
vn 0.1890 -0.9636 -0.1890
vn 0.6947 0.6947 -0.1862
vn 0.6947 -0.6947 -0.1862
vn 0.9351 0.2506 -0.2506
vn 0.2582 0.9636 -0.0692
vn 0.2582 -0.9636 -0.0692
vn 0.9351 -0.2506 -0.2506
vn 0.6947 -0.6947 0.1862
vn 0.9351 0.2506 0.2506
vn 0.2582 0.9636 0.0692
vn 0.2582 -0.9636 0.0692
vn 0.9351 -0.2506 0.2506
vn 0.6947 0.6947 0.1862
vn 0.5086 -0.6947 0.5086
vn 0.6846 0.2506 0.6846
vn 0.1890 0.9636 0.1890
vn 0.1890 -0.9636 0.1890
vn 0.6846 -0.2506 0.6846
vn 0.5086 0.6947 0.5086
vn 0.1862 -0.6947 0.6947
vn 0.2506 0.2506 0.9351
vn 0.0692 0.9636 0.2582
vn 0.0692 -0.9636 0.2582
vn 0.2506 -0.2506 0.9351
vn 0.1862 0.6947 0.6947
vn -0.1862 -0.6947 0.6947
vn -0.2506 0.2506 0.9351
vn -0.0692 0.9636 0.2582
vn -0.0692 -0.9636 0.2582
vn -0.2506 -0.2506 0.9351
vn -0.1862 0.6947 0.6947
vn -0.6846 0.2506 0.6846
vn -0.1890 0.9636 0.1890
vn -0.1890 -0.9636 0.1890
vn -0.6846 -0.2506 0.6846
vn -0.5086 0.6947 0.5086
vn -0.5086 -0.6947 0.5086
vn -0.2582 0.9636 0.0692
vn -0.2582 -0.9636 0.0692
vn -0.9351 -0.2506 0.2506
vn -0.6947 0.6947 0.1862
vn -0.6947 -0.6947 0.1862
vn -0.9351 0.2506 0.2506
vn -0.2582 -0.9636 -0.0692
vn -0.9351 -0.2506 -0.2506
vn -0.6947 0.6947 -0.1862
vn -0.6947 -0.6947 -0.1862
vn -0.9351 0.2506 -0.2506
vn -0.2582 0.9636 -0.0692
vn -0.1890 -0.9636 -0.1890
vn -0.6846 -0.2506 -0.6846
vn -0.5086 0.6947 -0.5086
vn -0.5086 -0.6947 -0.5086
vn -0.6846 0.2506 -0.6846
vn -0.1890 0.9636 -0.1890
vn -0.0692 -0.9636 -0.2582
vn -0.2506 -0.2506 -0.9351
vn -0.1862 0.6947 -0.6947
vn -0.1862 -0.6947 -0.6947
vn -0.2506 0.2506 -0.9351
vn -0.0692 0.9636 -0.2582
vt 0.708333 0.000000
vt 0.750000 0.166667
vt 0.666667 0.166667
vt 0.750000 0.333333
vt 0.750000 0.500000
vt 0.666667 0.500000
vt 0.666667 0.333333
vt 0.750000 0.666667
vt 0.750000 0.833333
vt 0.666667 0.833333
vt 0.666667 0.666667
vt 0.708333 1.000000
vt 0.583333 0.500000
vt 0.583333 0.333333
vt 0.583333 0.833333
vt 0.583333 0.666667
vt 0.583333 0.166667
vt 0.625000 1.000000
vt 0.625000 0.000000
vt 0.500000 0.833333
vt 0.500000 0.666667
vt 0.500000 0.333333
vt 0.500000 0.166667
vt 0.500000 0.500000
vt 0.541667 1.000000
vt 0.541667 0.000000
vt 0.416667 0.333333
vt 0.416667 0.166667
vt 0.416667 0.666667
vt 0.416667 0.500000
vt 0.458333 1.000000
vt 0.416667 0.833333
vt 0.458333 0.000000
vt 0.333333 0.333333
vt 0.333333 0.166667
vt 0.333333 0.666667
vt 0.333333 0.500000
vt 0.375000 1.000000
vt 0.333333 0.833333
vt 0.375000 0.000000
vt 0.250000 0.333333
vt 0.250000 0.166667
vt 0.250000 0.666667
vt 0.250000 0.500000
vt 0.291667 1.000000
vt 0.250000 0.833333
vt 0.291667 0.000000
vt 0.166667 0.333333
vt 0.166667 0.166667
vt 0.166667 0.666667
vt 0.166667 0.500000
vt 0.208333 1.000000
vt 0.166667 0.833333
vt 0.208333 0.000000
vt 0.083333 0.666667
vt 0.083333 0.500000
vt 0.125000 1.000000
vt 0.083333 0.833333
vt 0.125000 0.000000
vt 0.083333 0.166667
vt 0.083333 0.333333
vt 0.041667 1.000000
vt 0.000000 0.833333
vt 0.041667 0.000000
vt 0.000000 0.166667
vt 0.000000 0.500000
vt 0.000000 0.333333
vt 0.000000 0.666667
vt 0.958333 0.000000
vt 1.000000 0.166667
vt 0.916667 0.166667
vt 1.000000 0.333333
vt 1.000000 0.500000
vt 0.916667 0.500000
vt 0.916667 0.333333
vt 1.000000 0.666667
vt 1.000000 0.833333
vt 0.916667 0.833333
vt 0.916667 0.666667
vt 0.958333 1.000000
vt 0.875000 0.000000
vt 0.833333 0.166667
vt 0.833333 0.500000
vt 0.833333 0.333333
vt 0.833333 0.833333
vt 0.833333 0.666667
vt 0.875000 1.000000
vt 0.791667 0.000000
vt 0.791667 1.000000
s 0
f 7/1/1 6/2/1 12/3/1
f 5/4/2 4/5/2 10/6/2 11/7/2
f 3/8/3 2/9/3 8/10/3 9/11/3
f 6/2/4 5/4/4 11/7/4 12/3/4
f 4/5/5 3/8/5 9/11/5 10/6/5
f 2/9/6 1/12/6 8/10/6
f 11/7/7 10/6/7 15/13/7 16/14/7
f 9/11/8 8/10/8 13/15/8 14/16/8
f 12/3/9 11/7/9 16/14/9 17/17/9
f 10/6/10 9/11/10 14/16/10 15/13/10
f 8/10/11 1/18/11 13/15/11
f 7/19/12 12/3/12 17/17/12
f 14/16/13 13/15/13 18/20/13 19/21/13
f 17/17/14 16/14/14 21/22/14 22/23/14
f 15/13/15 14/16/15 19/21/15 20/24/15
f 13/15/16 1/25/16 18/20/16
f 7/26/17 17/17/17 22/23/17
f 16/14/18 15/13/18 20/24/18 21/22/18
f 22/23/19 21/22/19 26/27/19 27/28/19
f 20/24/20 19/21/20 24/29/20 25/30/20
f 18/20/21 1/31/21 23/32/21
f 7/33/22 22/23/22 27/28/22
f 21/22/23 20/24/23 25/30/23 26/27/23
f 19/21/24 18/20/24 23/32/24 24/29/24
f 27/28/25 26/27/25 31/34/25 32/35/25
f 25/30/26 24/29/26 29/36/26 30/37/26
f 23/32/27 1/38/27 28/39/27
f 7/40/28 27/28/28 32/35/28
f 26/27/29 25/30/29 30/37/29 31/34/29
f 24/29/30 23/32/30 28/39/30 29/36/30
f 32/35/31 31/34/31 36/41/31 37/42/31
f 30/37/32 29/36/32 34/43/32 35/44/32
f 28/39/33 1/45/33 33/46/33
f 7/47/34 32/35/34 37/42/34
f 31/34/35 30/37/35 35/44/35 36/41/35
f 29/36/36 28/39/36 33/46/36 34/43/36
f 37/42/37 36/41/37 41/48/37 42/49/37
f 35/44/38 34/43/38 39/50/38 40/51/38
f 33/46/39 1/52/39 38/53/39
f 7/54/40 37/42/40 42/49/40
f 36/41/41 35/44/41 40/51/41 41/48/41
f 34/43/42 33/46/42 38/53/42 39/50/42
f 40/51/43 39/50/43 44/55/43 45/56/43
f 38/53/44 1/57/44 43/58/44
f 7/59/45 42/49/45 47/60/45
f 41/48/46 40/51/46 45/56/46 46/61/46
f 39/50/47 38/53/47 43/58/47 44/55/47
f 42/49/48 41/48/48 46/61/48 47/60/48
f 43/58/49 1/62/49 48/63/49
f 7/64/50 47/60/50 52/65/50
f 46/61/51 45/56/51 50/66/51 51/67/51
f 44/55/52 43/58/52 48/63/52 49/68/52
f 47/60/53 46/61/53 51/67/53 52/65/53
f 45/56/54 44/55/54 49/68/54 50/66/54
f 7/69/55 52/70/55 57/71/55
f 51/72/56 50/73/56 55/74/56 56/75/56
f 49/76/57 48/77/57 53/78/57 54/79/57
f 52/70/58 51/72/58 56/75/58 57/71/58
f 50/73/59 49/76/59 54/79/59 55/74/59
f 48/77/60 1/80/60 53/78/60
f 7/81/61 57/71/61 62/82/61
f 56/75/62 55/74/62 60/83/62 61/84/62
f 54/79/63 53/78/63 58/85/63 59/86/63
f 57/71/64 56/75/64 61/84/64 62/82/64
f 55/74/65 54/79/65 59/86/65 60/83/65
f 53/78/66 1/87/66 58/85/66
f 7/88/67 62/82/67 6/2/67
f 61/84/68 60/83/68 4/5/68 5/4/68
f 59/86/69 58/85/69 2/9/69 3/8/69
f 62/82/70 61/84/70 5/4/70 6/2/70
f 60/83/71 59/86/71 3/8/71 4/5/71
f 58/85/72 1/89/72 2/9/72
